# xmcd
#
# Track frame offsets:
#	150
#	20767
#	36505
#	50171
#	65000
#	78553
#	97706
#	114755
#	129920
#	145753
#
# Disc length: 2152 seconds
# Revision: 0
# Processed by: cddbd v1.5.2PL0 Copyright (c) Steve Scherf et al.
# Submitted via: dBpowerAMP V12.0
#
DISCID=8408660a
DTITLE=Jane Allison - Just Another Girl
DYEAR=2014
DGENRE=Singer-Songwriter
TTITLE0=Hymn To Hope
TTITLE1=Fading Moon
TTITLE2=Country Lovin'
TTITLE3=Just Another Girl
TTITLE4=Catch Me
TTITLE5=All Over Now
TTITLE6=Joan Of Arc
TTITLE7=Real Life
TTITLE8=Wait For Me
TTITLE9=Farewell My Boy
EXTD=
EXTT0=
EXTT1=
EXTT2=
EXTT3=
EXTT4=
EXTT5=
EXTT6=
EXTT7=
EXTT8=
EXTT9=
PLAYORDER=
